<?xml version="1.0" encoding="utf-8"?>
<!-- Generator: Adobe Illustrator 26.0.1, SVG Export Plug-In . SVG Version: 6.00 Build 0)  -->
<svg version="1.1" id="Layer_1" xmlns="http://www.w3.org/2000/svg" xmlns:xlink="http://www.w3.org/1999/xlink" x="0px" y="0px"
	 viewBox="0 0 595.28 551.49" style="enable-background:new 0 0 595.28 551.49;" xml:space="preserve">
<style type="text/css">
	.st0{fill:#EF3C48;}
</style>
<path class="st0" d="M400.88,321.26c-0.9,0.96-1.69,1.99-2.34,3.13c-0.79,1-1.37,2.1-1.75,3.3c-0.63,1.17-1,2.41-1.17,3.68
	c-0.79,3.75-0.38,7.6,1.17,11.11c0.85,2.4,2.27,4.57,4.1,6.39c1.82,1.82,4.02,3.21,6.43,4.1c2.31,1.07,4.85,1.62,7.43,1.55
	c2.51,0.04,5.06-0.45,7.4-1.37c2.33-1.1,4.5-2.55,6.43-4.27c1.82-1.82,3.23-3.95,4.24-6.32c0.96-2.38,1.44-4.92,1.44-7.47
	c0.07-2.55-0.48-5.09-1.59-7.4c-0.96-2.37-2.34-4.54-4.1-6.43c-1.82-1.79-3.95-3.21-6.33-4.2c-2.4-0.96-4.95-1.44-7.49-1.44
	c-2.58,0.04-5.09,0.59-7.43,1.59C404.91,318.09,402.74,319.5,400.88,321.26L400.88,321.26z M320.48,402.17
	c-0.79,1-1.38,2.1-1.75,3.3c-0.76,1.14-1.28,2.41-1.59,3.72c-0.59,2.47-0.59,5.09,0,7.57l1.17,3.51l1.75,3.51l2.34,2.89
	c3.85,3.65,8.94,5.68,14.28,5.65c2.55,0.04,5.09-0.48,7.46-1.44c2.38-0.96,4.54-2.37,6.37-4.2c1.72-1.88,3.13-4.05,4.1-6.39
	c1.23-2.96,1.68-6.16,1.37-9.33c-0.31-3.16-1.41-6.19-3.16-8.84c-1.79-2.68-4.2-4.84-6.98-6.36c-2.83-1.51-5.99-2.31-9.15-2.31
	c-5.2,0.07-10.12,2.06-13.87,5.65L320.48,402.17z M400.88,399.08c-1.79,1.82-3.17,4.02-4.1,6.39c-1.66,3.55-2.2,7.47-1.59,11.28
	l1.17,3.51c0.45,1.24,1.03,2.4,1.75,3.51c0.72,1,1.51,2,2.34,2.89c1.86,1.8,4.06,3.17,6.46,4.1c2.34,1.03,4.85,1.55,7.4,1.55
	c2.58,0,5.09-0.52,7.43-1.55c2.37-0.96,4.54-2.37,6.43-4.1c1.89-1.79,3.37-3.92,4.44-6.29c1.03-2.38,1.59-4.92,1.62-7.5
	c0.07-2.55-0.48-5.09-1.59-7.4c-0.96-2.33-2.34-4.51-4.1-6.39c-1.89-1.73-4.06-3.1-6.43-4.1c-2.34-1.03-4.85-1.55-7.4-1.55
	c-2.58,0-5.09,0.52-7.43,1.55C404.91,395.91,402.74,397.29,400.88,399.08L400.88,399.08z M318.73,342.49
	c0.92,2.37,2.3,4.54,4.09,6.39c3.75,3.55,8.67,5.57,13.87,5.65c3.16,0,6.32-0.83,9.15-2.31c2.78-1.51,5.2-3.72,6.98-6.36
	c1.75-2.65,2.85-5.68,3.16-8.84c0.31-3.17-0.14-6.4-1.37-9.33c-0.97-2.37-2.38-4.54-4.1-6.43c-1.82-1.79-3.99-3.21-6.37-4.2
	c-2.37-0.96-4.91-1.44-7.46-1.44c-5.2,0.11-10.12,2.1-13.87,5.65c-2.71,2.75-4.54,6.23-5.29,10
	C316.8,335.02,317.22,338.95,318.73,342.49L318.73,342.49z M400.88,243.48c-1.73,1.89-3.1,4.06-4.1,6.39
	c-1.51,3.58-1.93,7.47-1.17,11.26c0.72,3.74,2.55,7.22,5.27,9.97c1.86,1.76,4.02,3.17,6.43,4.06c2.34,1.04,4.85,1.59,7.43,1.59
	c2.54,0,5.06-0.55,7.4-1.59c2.37-0.96,4.54-2.33,6.43-4.06c1.82-1.82,3.23-3.99,4.24-6.36c0.96-2.34,1.44-4.89,1.44-7.47
	c0.07-2.55-0.48-5.06-1.59-7.4c-0.96-2.33-2.34-4.5-4.1-6.39c-2.71-2.72-6.23-4.54-10.01-5.27c-3.78-0.72-7.71-0.31-11.25,1.17
	C404.91,240.31,402.74,241.72,400.88,243.48L400.88,243.48z M161.02,257.27v155.6c0,5.16,2.07,10.11,5.72,13.77
	c3.68,3.65,8.63,5.67,13.79,5.67h78.06c5.2,0,10.15-2.03,13.84-5.67c3.65-3.66,5.71-8.6,5.71-13.77v-155.6
	c0-5.16-2.06-10.08-5.71-13.72c-3.68-3.65-8.64-5.72-13.84-5.72h-78.06c-5.16,0-10.11,2.06-13.79,5.72
	C163.09,247.2,161.02,252.11,161.02,257.27L161.02,257.27z M239.09,276.75v116.69h-39.01V276.75H239.09z M82.97,218.4v233.38
	c0,15.48,6.16,30.3,17.13,41.25c11.01,10.94,25.87,17.09,41.42,17.09h312.24c15.54,0,30.41-6.16,41.42-17.09
	c10.97-10.95,17.13-25.77,17.13-41.25V218.4c0-15.48-6.16-30.3-17.13-41.28c-11.01-10.95-25.87-17.07-41.42-17.07H141.52
	c-15.54,0-30.41,6.12-41.42,17.07C89.12,188.09,82.97,202.92,82.97,218.4L82.97,218.4z M453.76,198.93c5.19,0,10.15,2.06,13.79,5.72
	c3.68,3.65,5.71,8.6,5.71,13.76v233.38c0,5.16-2.03,10.08-5.71,13.73c-3.65,3.65-8.6,5.71-13.79,5.71H141.52
	c-5.19,0-10.15-2.06-13.79-5.71c-3.68-3.65-5.71-8.57-5.71-13.73V218.4c0-5.16,2.03-10.11,5.71-13.76c3.65-3.65,8.6-5.72,13.79-5.72
	H453.76z M320.48,246.57c-0.79,1-1.38,2.13-1.75,3.3c-0.63,1.17-1,2.45-1.17,3.72c-0.59,2.51-0.59,5.09,0,7.57l1.17,3.51l1.75,3.51
	l2.33,2.92c3.75,3.55,8.67,5.57,13.87,5.65c3.16-0.04,6.32-0.83,9.15-2.34c2.78-1.51,5.2-3.68,6.98-6.32
	c1.75-2.65,2.85-5.68,3.16-8.88c0.31-3.17-0.14-6.37-1.37-9.33c-0.97-2.33-2.38-4.5-4.1-6.39c-1.82-1.79-3.99-3.24-6.37-4.2
	c-2.37-0.96-4.91-1.44-7.46-1.44c-5.2,0.07-10.12,2.1-13.87,5.65L320.48,246.57z M320.48,246.57"/>
<path class="st0" d="M162.85,48.18c-1.03,1.03-1.86,2.31-2.4,3.68c-0.59,1.34-0.86,2.82-0.83,4.3l0.9,67.39
	c0.03,1.48,0.34,2.96,0.96,4.31c0.58,1.37,1.44,2.58,2.51,3.61c1.03,1.03,2.27,1.86,3.65,2.4c1.38,0.55,2.86,0.86,4.33,0.83l45-0.62
	l173.73-2.34c1.48-0.04,2.96-0.34,4.31-0.92c1.34-0.63,2.58-1.44,3.61-2.51l33.23-34.16c2.1-2.14,3.23-5.03,3.21-8.02
	c-0.04-2.95-1.28-5.81-3.41-7.87l-34.16-33.26c-1.07-1.14-2.38-2.07-3.82-2.69c-1.44-0.62-2.99-0.96-4.57-0.93l-173.29,2.83
	l-44.65,0.13c-1.51,0.07-2.96,0.38-4.37,0.93c-0.69,0.58-1.35,1.21-1.89,1.93c-0.38,0.34-0.76,0.72-1.1,1.14L162.85,48.18z
	 M385.09,64.31L407.9,86.5l-22.19,22.81l-157.84,2.14l-0.62-45L385.09,64.31z M204.82,66.75l0.62,45l-22.49,0.2l-0.63-44.83
	L204.82,66.75z M204.82,66.75"/>
</svg>
