<?xml version="1.0" encoding="UTF-8"?>
<svg xmlns="http://www.w3.org/2000/svg" xmlns:xlink="http://www.w3.org/1999/xlink" viewBox="0 0 29 29" width="29px" height="29px">
<g id="surface14592139">
<path style=" stroke:none;fill-rule:nonzero;fill:rgb(100%,89.411765%,76.862746%);fill-opacity:1;" d="M 14.5 0.210938 C 6.609375 0.210938 0.210938 6.609375 0.210938 14.5 C 0.210938 22.390625 6.609375 28.789062 14.5 28.789062 C 22.390625 28.789062 28.789062 22.390625 28.789062 14.5 C 28.789062 6.609375 22.390625 0.210938 14.5 0.210938 Z M 14.5 2.441406 C 21.148438 2.441406 26.558594 7.851562 26.558594 14.5 C 26.558594 15.023438 26.519531 15.527344 26.457031 16.035156 C 26.234375 15.976562 25.535156 15.796875 24.78125 15.789062 C 24.105469 15.78125 23.296875 15.894531 22.867188 15.964844 C 22.980469 15.503906 23.074219 15.007812 23.074219 14.5 C 23.074219 13.226562 22.59375 11.992188 21.75 10.945312 C 22.0625 9.960938 22.5 7.71875 21.644531 6.867188 C 19.554688 6.867188 18.378906 8.195312 18.160156 8.46875 C 17.203125 8.121094 16.164062 7.945312 15.058594 7.945312 C 13.976562 7.945312 12.929688 8.105469 11.992188 8.433594 C 11.699219 8.082031 10.542969 6.867188 8.539062 6.867188 C 7.703125 7.703125 8.121094 9.859375 8.433594 10.875 C 7.550781 11.9375 7.039062 13.199219 7.039062 14.5 C 7.039062 14.980469 7.078125 15.457031 7.179688 15.894531 C 6.8125 15.863281 5.328125 15.753906 4.742188 15.753906 C 4.152344 15.753906 3.183594 15.882812 2.542969 16.035156 C 2.480469 15.527344 2.441406 15.023438 2.441406 14.5 C 2.441406 7.851562 7.851562 2.441406 14.5 2.441406 Z M 4.742188 16.035156 C 5.320312 16.035156 7.105469 16.195312 7.285156 16.207031 C 7.316406 16.3125 7.351562 16.417969 7.390625 16.523438 C 6.800781 16.472656 5.542969 16.390625 4.742188 16.488281 C 3.761719 16.605469 3.035156 16.992188 2.753906 17.148438 C 2.691406 16.875 2.621094 16.589844 2.578125 16.3125 C 3.195312 16.167969 4.195312 16.035156 4.742188 16.035156 Z M 24.78125 16.070312 C 25.515625 16.078125 26.234375 16.234375 26.421875 16.277344 C 26.402344 16.402344 26.371094 16.535156 26.351562 16.660156 C 26.253906 16.636719 25.382812 16.367188 24.46875 16.347656 C 24.019531 16.335938 23.308594 16.410156 22.761719 16.453125 C 22.785156 16.382812 22.808594 16.3125 22.832031 16.242188 C 23.210938 16.191406 24.113281 16.058594 24.78125 16.070312 Z M 24.433594 16.625 C 25.324219 16.648438 26.265625 16.925781 26.316406 16.941406 C 25.492188 20.945312 22.683594 24.203125 18.960938 25.6875 L 18.960938 23.773438 C 18.960938 22.566406 18.242188 20.996094 17.21875 20.214844 C 20.101562 19.800781 21.898438 18.527344 22.65625 16.730469 C 23.175781 16.6875 23.96875 16.613281 24.433594 16.625 Z M 5.648438 16.730469 C 6.445312 16.734375 7.160156 16.773438 7.492188 16.800781 C 8.269531 18.554688 10.050781 19.808594 12.898438 20.214844 C 12.574219 20.464844 12.273438 20.789062 12.023438 21.15625 C 12.015625 21.171875 12 21.179688 11.992188 21.191406 C 11.433594 21.863281 10.386719 21.820312 9.410156 21.820312 C 8.414062 21.820312 7.816406 21.023438 7.285156 20.320312 C 6.75 19.625 6.050781 19.5625 5.679688 19.519531 C 5.3125 19.480469 5.210938 19.667969 5.402344 19.796875 C 6.488281 20.5625 6.914062 21.492188 7.355469 22.308594 C 7.75 23.039062 8.566406 23.421875 9.480469 23.421875 L 11.1875 23.421875 C 11.175781 23.535156 11.152344 23.664062 11.152344 23.773438 L 11.152344 26.070312 C 7.046875 24.886719 3.863281 21.59375 2.824219 17.429688 C 3.042969 17.304688 3.808594 16.878906 4.773438 16.765625 C 5.007812 16.738281 5.316406 16.730469 5.648438 16.730469 Z M 15.058594 23.421875 C 15.367188 23.421875 15.617188 23.671875 15.617188 23.980469 L 15.617188 26.492188 C 15.246094 26.523438 14.878906 26.558594 14.5 26.558594 L 14.5 23.980469 C 14.5 23.671875 14.75 23.421875 15.058594 23.421875 Z M 12.828125 24.085938 C 13.136719 24.085938 13.382812 24.332031 13.382812 24.644531 L 13.382812 26.492188 C 13.015625 26.457031 12.628906 26.417969 12.269531 26.351562 L 12.269531 24.644531 C 12.269531 24.332031 12.519531 24.085938 12.828125 24.085938 Z M 17.289062 24.085938 C 17.597656 24.085938 17.847656 24.332031 17.847656 24.644531 L 17.847656 26.070312 C 17.480469 26.175781 17.109375 26.28125 16.730469 26.351562 L 16.730469 24.644531 C 16.730469 24.332031 16.980469 24.085938 17.289062 24.085938 Z M 17.289062 24.085938 "/>
</g>
</svg>
